<svg xmlns="http://www.w3.org/2000/svg" width="760" height="214" viewBox="0 0 760 214"><rect width="100%" height="100%" rx="12" fill="#1a1b26"/><style>text{font-family:-apple-system,BlinkMacSystemFont,'Segoe UI',sans-serif}.t{fill:#a9b1d6}.v{fill:#7aa2f7;font-weight:700}.s{fill:#73daca}</style><text x="32" y="38" class="t" font-size="20" text-anchor="start">Top Languages</text><text x="35" y="80" class="t" font-size="13" text-anchor="start">TeX</text><rect x="150" y="68" width="500" height="12" rx="6" fill="#292e42"/><rect x="150" y="68" width="358.0" height="12" rx="6" fill="#7aa2f7"/><text x="670" y="80" class="s" font-size="12" text-anchor="start">71.6%</text><text x="35" y="98" class="t" font-size="13" text-anchor="start">HTML</text><rect x="150" y="86" width="500" height="12" rx="6" fill="#292e42"/><rect x="150" y="86" width="89.4" height="12" rx="6" fill="#7aa2f7"/><text x="670" y="98" class="s" font-size="12" text-anchor="start">17.9%</text><text x="35" y="116" class="t" font-size="13" text-anchor="start">Tcl</text><rect x="150" y="104" width="500" height="12" rx="6" fill="#292e42"/><rect x="150" y="104" width="42.1" height="12" rx="6" fill="#7aa2f7"/><text x="670" y="116" class="s" font-size="12" text-anchor="start">8.4%</text><text x="35" y="134" class="t" font-size="13" text-anchor="start">XSLT</text><rect x="150" y="122" width="500" height="12" rx="6" fill="#292e42"/><rect x="150" y="122" width="4.8" height="12" rx="6" fill="#7aa2f7"/><text x="670" y="134" class="s" font-size="12" text-anchor="start">1.0%</text><text x="35" y="152" class="t" font-size="13" text-anchor="start">Python</text><rect x="150" y="140" width="500" height="12" rx="6" fill="#292e42"/><rect x="150" y="140" width="2.8" height="12" rx="6" fill="#7aa2f7"/><text x="670" y="152" class="s" font-size="12" text-anchor="start">0.6%</text><text x="35" y="170" class="t" font-size="13" text-anchor="start">JavaScript</text><rect x="150" y="158" width="500" height="12" rx="6" fill="#292e42"/><rect x="150" y="158" width="1.3" height="12" rx="6" fill="#7aa2f7"/><text x="670" y="170" class="s" font-size="12" text-anchor="start">0.3%</text><text x="35" y="188" class="t" font-size="13" text-anchor="start">Java</text><rect x="150" y="176" width="500" height="12" rx="6" fill="#292e42"/><rect x="150" y="176" width="0.6" height="12" rx="6" fill="#7aa2f7"/><text x="670" y="188" class="s" font-size="12" text-anchor="start">0.1%</text><text x="35" y="206" class="t" font-size="13" text-anchor="start">C#</text><rect x="150" y="194" width="500" height="12" rx="6" fill="#292e42"/><rect x="150" y="194" width="0.5" height="12" rx="6" fill="#7aa2f7"/><text x="670" y="206" class="s" font-size="12" text-anchor="start">0.1%</text></svg>